<svg xmlns="http://www.w3.org/2000/svg" width="19.5" height="17.426" viewBox="0 0 19.5 17.426">
    <g data-name="Risk Level High">
        <path data-name="41a8d6ae44be12aed405511208327a32" d="m31.834 12.353 7.713 13.359a2.033 2.033 0 0 1-1.761 3.05H22.361a2.033 2.033 0 0 1-1.761-3.05l7.713-13.359a2.033 2.033 0 0 1 3.522 0zm-1.761 12.413a1.014 1.014 0 1 0 1.014 1.014 1.014 1.014 0 0 0-1.014-1.014zm0-1.81a.792.792 0 0 1-.791-.763l-.2-5.541a.792.792 0 0 1 .791-.82h.4a.792.792 0 0 1 .791.82l-.2 5.541a.792.792 0 0 1-.79.762z" transform="translate(-20.323 -11.337)" style="fill:#ec4d57;fill-rule:evenodd"/>
    </g>
</svg>
